<svg width="48" height="48" version="1.1" xmlns="http://www.w3.org/2000/svg" desc="Created with imagetracer.js version 1.2.6" ><path fill="rgb(53,53,53)" stroke="rgb(53,53,53)" stroke-width="1" opacity="1" d="M 36.5 6 Q 39.8 4.9 39 7.5 L 43 13 L 48 12 L 48 17.5 L 46.5 18 L 39 14.5 L 40 12.5 Q 38.5 8 33 7.5 L 36.5 6 Z " /><path fill="rgb(244,244,244)" stroke="rgb(244,244,244)" stroke-width="1" opacity="1" d="M 17.5 0 L 18.5 2 L 17.5 0 Z " /><path fill="rgb(244,244,244)" stroke="rgb(244,244,244)" stroke-width="1" opacity="1" d="M 13.5 1 Q 16.8 -0.1 16 2.5 L 14.5 2 L 12.5 3 L 13.5 1 Z " /><path fill="rgb(244,244,244)" stroke="rgb(244,244,244)" stroke-width="1" opacity="1" d="M 28.5 1 L 27.5 3 L 28.5 1 Z " /><path fill="rgb(244,244,244)" stroke="rgb(244,244,244)" stroke-width="1" opacity="1" d="M 23.5 2 L 25 4.5 L 23.5 4 L 21 3.5 L 23.5 2 Z " /><path fill="rgb(244,244,244)" stroke="rgb(244,244,244)" stroke-width="1" opacity="1" d="M 7.5 3 L 5.5 6 L 7.5 3 Z " /><path fill="rgb(244,244,244)" stroke="rgb(244,244,244)" stroke-width="1" opacity="1" d="M 29.5 5 L 31 8.5 L 29 7.5 L 29.5 5 Z " /><path fill="rgb(244,244,244)" stroke="rgb(244,244,244)" stroke-width="1" opacity="1" d="M 12 13 Q 15 11.8 14 15.5 Q 11.5 17 15 18.5 L 16 20.5 L 12 17.5 L 13 15.5 L 12 13 Z " /><path fill="rgb(244,244,244)" stroke="rgb(244,244,244)" stroke-width="1" opacity="1" d="M 7.5 14 L 8.5 16 L 7.5 14 Z " /><path fill="rgb(244,244,244)" stroke="rgb(244,244,244)" stroke-width="1" opacity="1" d="M 23.5 14 Q 26.2 15.3 24 16.5 L 23.5 19 L 23.5 14 Z " /><path fill="rgb(244,244,244)" stroke="rgb(244,244,244)" stroke-width="1" opacity="1" d="M 38 16 L 40 16.5 L 38 17.5 L 38 16 Z " /><path fill="rgb(244,244,244)" stroke="rgb(244,244,244)" stroke-width="1" opacity="1" d="M 25.5 23 L 24.5 25 L 25.5 23 Z " /><path fill="rgb(244,244,244)" stroke="rgb(244,244,244)" stroke-width="1" opacity="1" d="M 19.5 25 L 20 26.5 L 17 28.5 L 19.5 25 Z " /><path fill="rgb(244,244,244)" stroke="rgb(244,244,244)" stroke-width="1" opacity="1" d="M 3.5 27 L 4.5 29 L 3.5 27 Z " /><path fill="rgb(244,244,244)" stroke="rgb(244,244,244)" stroke-width="1" opacity="1" d="M 46.5 29 L 45.5 31 L 46.5 29 Z " /><path fill="rgb(244,244,244)" stroke="rgb(244,244,244)" stroke-width="1" opacity="1" d="M 3.5 38 Q 6.8 36.9 6 39.5 L 4.5 39 L 3.5 38 Z " /><path fill="rgb(244,244,244)" stroke="rgb(244,244,244)" stroke-width="1" opacity="1" d="M 8 46 L 10 46.5 L 8 47.5 L 8 46 Z " /><path fill="rgb(216,216,216)" stroke="rgb(216,216,216)" stroke-width="1" opacity="1" d="M 20.5 6 L 23 7.5 L 21.5 8 L 20.5 6 Z " /><path fill="rgb(216,216,216)" stroke="rgb(216,216,216)" stroke-width="1" opacity="1" d="M 9.5 7 L 10.5 11 Q 8.3 11.8 9 9.5 Q 6.8 8.3 9.5 7 Z " /><path fill="rgb(216,216,216)" stroke="rgb(216,216,216)" stroke-width="1" opacity="1" d="M 28.5 21 L 27.5 23 L 28.5 21 Z " /><path fill="rgb(216,216,216)" stroke="rgb(216,216,216)" stroke-width="1" opacity="1" d="M 25.5 24 L 24.5 26 L 25.5 24 Z " /><path fill="rgb(216,216,216)" stroke="rgb(216,216,216)" stroke-width="1" opacity="1" d="M 29.5 27 L 29 28.5 Q 29.8 30.8 27.5 30 L 29.5 27 Z " /><path fill="rgb(216,216,216)" stroke="rgb(216,216,216)" stroke-width="1" opacity="1" d="M 24.5 29 L 27 32.5 L 24 30.5 L 24.5 29 Z " /><path fill="rgb(216,216,216)" stroke="rgb(216,216,216)" stroke-width="1" opacity="1" d="M 22 32 L 25 33.5 L 25.5 36 L 27.5 35 L 27 36.5 L 26.5 39 L 23 38 L 21.5 43 L 21 41.5 L 21 39.5 Q 20.4 34.1 22 32 Z " /><path fill="rgb(216,216,216)" stroke="rgb(216,216,216)" stroke-width="1" opacity="1" d="M 40.5 32 L 43 36.5 L 42 36.5 L 40.5 32 Z " /><path fill="rgb(216,216,216)" stroke="rgb(216,216,216)" stroke-width="1" opacity="1" d="M 18.5 37 L 19 39.5 L 18 39.5 L 18.5 37 Z " /><path fill="rgb(216,216,216)" stroke="rgb(216,216,216)" stroke-width="1" opacity="1" d="M 38.5 38 L 40 38.5 L 37.5 40 L 38.5 38 Z " /><path fill="rgb(216,216,216)" stroke="rgb(216,216,216)" stroke-width="1" opacity="1" d="M 43.5 38 L 45 40.5 L 44 40.5 L 43.5 38 Z " /><path fill="rgb(216,216,216)" stroke="rgb(216,216,216)" stroke-width="1" opacity="1" d="M 29.5 41 L 30.5 43 L 29.5 41 Z " /><path fill="rgb(216,216,216)" stroke="rgb(216,216,216)" stroke-width="1" opacity="1" d="M 17.5 42 L 21 45.5 L 19.5 47 Q 17.3 47.8 18 45.5 L 17 45.5 L 15.5 48 L 15 45.5 L 17.5 42 Z " /><path fill="rgb(216,216,216)" stroke="rgb(216,216,216)" stroke-width="1" opacity="1" d="M 28 44 Q 31 42.8 30 46.5 L 28 45.5 L 28 44 Z " /><path fill="rgb(247,247,247)" stroke="rgb(247,247,247)" stroke-width="1" opacity="1" d="M 6.5 1 L 5.5 3 L 6.5 1 Z " /><path fill="rgb(247,247,247)" stroke="rgb(247,247,247)" stroke-width="1" opacity="1" d="M 22.5 1 L 21.5 3 L 20 2.5 L 22.5 1 Z " /><path fill="rgb(247,247,247)" stroke="rgb(247,247,247)" stroke-width="1" opacity="1" d="M 16.5 2 L 17.5 4 L 16.5 2 Z " /><path fill="rgb(247,247,247)" stroke="rgb(247,247,247)" stroke-width="1" opacity="1" d="M 18.5 9 L 20.5 12 L 18.5 11 L 17 11.5 L 18.5 9 Z " /><path fill="rgb(247,247,247)" stroke="rgb(247,247,247)" stroke-width="1" opacity="1" d="M 31.5 9 L 31 10.5 L 30.5 12 L 30 10.5 L 31.5 9 Z " /><path fill="rgb(247,247,247)" stroke="rgb(247,247,247)" stroke-width="1" opacity="1" d="M 43.5 10 L 44.5 12 L 43.5 10 Z " /><path fill="rgb(247,247,247)" stroke="rgb(247,247,247)" stroke-width="1" opacity="1" d="M 5.5 12 L 6.5 14 L 5.5 12 Z " /><path fill="rgb(247,247,247)" stroke="rgb(247,247,247)" stroke-width="1" opacity="1" d="M 16.5 15 L 18 18.5 L 17.5 21 L 16.5 19 L 15 19.5 L 16.5 15 Z " /><path fill="rgb(247,247,247)" stroke="rgb(247,247,247)" stroke-width="1" opacity="1" d="M 27.5 15 L 28.5 17 L 27.5 15 Z " /><path fill="rgb(247,247,247)" stroke="rgb(247,247,247)" stroke-width="1" opacity="1" d="M 20.5 17 L 19.5 19 L 20.5 17 Z " /><path fill="rgb(247,247,247)" stroke="rgb(247,247,247)" stroke-width="1" opacity="1" d="M 23.5 19 L 24 21.5 L 23 21.5 L 23.5 19 Z " /><path fill="rgb(247,247,247)" stroke="rgb(247,247,247)" stroke-width="1" opacity="1" d="M 12.5 20 L 14 22.5 L 13 22.5 L 12.5 20 Z " /><path fill="rgb(247,247,247)" stroke="rgb(247,247,247)" stroke-width="1" opacity="1" d="M 13.5 40 L 12.5 42 L 13.5 40 Z " /><path fill="rgb(237,237,237)" stroke="rgb(237,237,237)" stroke-width="1" opacity="1" d="M 10.5 0 L 9.5 2 L 7.5 3 L 8.5 1 L 10.5 0 Z " /><path fill="rgb(237,237,237)" stroke="rgb(237,237,237)" stroke-width="1" opacity="1" d="M 13.5 0 L 13.5 2 Q 16.1 1.2 15 4.5 L 13.5 4 L 11 5.5 L 10.5 7 L 9 4.5 L 13.5 0 Z " /><path fill="rgb(237,237,237)" stroke="rgb(237,237,237)" stroke-width="1" opacity="1" d="M 16.5 0 L 18.5 3 Q 20 0.5 21.5 4 L 26.5 6 L 26.5 4 L 29 4.5 L 28.5 7 L 26.5 7 L 23.5 6 L 21.5 7 Q 23.2 5 19.5 3 L 16 3.5 L 16 1.5 L 16.5 0 Z " /><path fill="rgb(237,237,237)" stroke="rgb(237,237,237)" stroke-width="1" opacity="1" d="M 27.5 0 L 28 1.5 L 26 2.5 L 27.5 0 Z " /><path fill="rgb(237,237,237)" stroke="rgb(237,237,237)" stroke-width="1" opacity="1" d="M 5.5 7 L 7 9.5 L 6 9.5 L 5.5 7 Z " /><path fill="rgb(237,237,237)" stroke="rgb(237,237,237)" stroke-width="1" opacity="1" d="M 28.5 9 L 31 9.5 L 28.5 10 L 28.5 9 Z " /><path fill="rgb(237,237,237)" stroke="rgb(237,237,237)" stroke-width="1" opacity="1" d="M 20.5 10 L 23 11 L 22.5 16 L 20.5 10 Z " /><path fill="rgb(237,237,237)" stroke="rgb(237,237,237)" stroke-width="1" opacity="1" d="M 6.5 11 L 8 13.5 L 6 12.5 L 6.5 11 Z " /><path fill="rgb(237,237,237)" stroke="rgb(237,237,237)" stroke-width="1" opacity="1" d="M 37.5 11 L 39 13.5 L 38 13.5 L 37.5 11 Z " /><path fill="rgb(237,237,237)" stroke="rgb(237,237,237)" stroke-width="1" opacity="1" d="M 28.5 13 L 27.5 15 L 28.5 13 Z " /><path fill="rgb(237,237,237)" stroke="rgb(237,237,237)" stroke-width="1" opacity="1" d="M 37.5 16 L 37.5 18 L 39 18.5 L 37.5 19 Q 34.5 17.5 37.5 16 Z " /><path fill="rgb(237,237,237)" stroke="rgb(237,237,237)" stroke-width="1" opacity="1" d="M 21.5 17 L 18.5 21 L 21.5 17 Z " /><path fill="rgb(237,237,237)" stroke="rgb(237,237,237)" stroke-width="1" opacity="1" d="M 30.5 18 L 31.5 20 Q 28.7 20.7 30.5 18 Z " /><path fill="rgb(237,237,237)" stroke="rgb(237,237,237)" stroke-width="1" opacity="1" d="M 22.5 20 L 23 25 L 20.5 24 L 19 24.5 L 20.5 22 L 22 22.5 L 22.5 20 Z " /><path fill="rgb(237,237,237)" stroke="rgb(237,237,237)" stroke-width="1" opacity="1" d="M 14.5 21 L 15.5 23 L 14.5 21 Z " /><path fill="rgb(237,237,237)" stroke="rgb(237,237,237)" stroke-width="1" opacity="1" d="M 1.5 29 L 0.5 31 L 1.5 29 Z " /><path fill="rgb(237,237,237)" stroke="rgb(237,237,237)" stroke-width="1" opacity="1" d="M 6.5 36 L 5.5 38 L 2 37.5 L 6.5 36 Z " /><path fill="rgb(237,237,237)" stroke="rgb(237,237,237)" stroke-width="1" opacity="1" d="M 13.5 41 L 14.5 43 L 12 42.5 L 13.5 41 Z " /><path fill="rgb(237,237,237)" stroke="rgb(237,237,237)" stroke-width="1" opacity="1" d="M 0.5 43 L 3 47.5 L 0 45.5 L 0.5 43 Z " /><path fill="rgb(237,237,237)" stroke="rgb(237,237,237)" stroke-width="1" opacity="1" d="M 8.5 43 L 12 46.5 L 10.5 48 L 9.5 45 L 8 45.5 L 8.5 43 Z " /><path fill="rgb(227,227,227)" stroke="rgb(227,227,227)" stroke-width="1" opacity="1" d="M 10.5 1 L 13 4.5 L 9 3.5 L 10.5 1 Z " /><path fill="rgb(227,227,227)" stroke="rgb(227,227,227)" stroke-width="1" opacity="1" d="M 24 1 L 27 1.5 L 25 2.5 L 25.5 4 L 24 1 Z " /><path fill="rgb(227,227,227)" stroke="rgb(227,227,227)" stroke-width="1" opacity="1" d="M 17.5 4 L 22 5.5 L 19.5 7 L 17.5 4 Z " /><path fill="rgb(227,227,227)" stroke="rgb(227,227,227)" stroke-width="1" opacity="1" d="M 5.5 6 L 8 6.5 L 5.5 7 L 5.5 6 Z " /><path fill="rgb(227,227,227)" stroke="rgb(227,227,227)" stroke-width="1" opacity="1" d="M 9.5 6 L 12 6.5 Q 11.3 8.8 13.5 8 L 13.5 9 Q 9.5 8.5 9.5 6 Z " /><path fill="rgb(227,227,227)" stroke="rgb(227,227,227)" stroke-width="1" opacity="1" d="M 25.5 7 L 26.5 9 L 28 8.5 L 25 10 L 25.5 7 Z " /><path fill="rgb(227,227,227)" stroke="rgb(227,227,227)" stroke-width="1" opacity="1" d="M 33.5 9 L 34.5 11 Q 31.7 11.7 33.5 9 Z " /><path fill="rgb(227,227,227)" stroke="rgb(227,227,227)" stroke-width="1" opacity="1" d="M 6.5 10 L 7.5 12 L 6.5 10 Z " /><path fill="rgb(227,227,227)" stroke="rgb(227,227,227)" stroke-width="1" opacity="1" d="M 28.5 10 L 29 12.5 L 28 12.5 L 28.5 10 Z " /><path fill="rgb(227,227,227)" stroke="rgb(227,227,227)" stroke-width="1" opacity="1" d="M 32.5 12 L 33.5 15 L 36.5 16 L 38 15.5 L 35.5 17 L 31 13.5 L 32.5 12 Z " /><path fill="rgb(227,227,227)" stroke="rgb(227,227,227)" stroke-width="1" opacity="1" d="M 12.5 15 L 11.5 17 L 12.5 15 Z " /><path fill="rgb(227,227,227)" stroke="rgb(227,227,227)" stroke-width="1" opacity="1" d="M 22.5 16 L 23 19.5 Q 21 24 19 20.5 L 22 19.5 L 22.5 16 Z " /><path fill="rgb(227,227,227)" stroke="rgb(227,227,227)" stroke-width="1" opacity="1" d="M 28.5 19 L 31 20.5 L 29.5 20 L 28.5 19 Z " /><path fill="rgb(227,227,227)" stroke="rgb(227,227,227)" stroke-width="1" opacity="1" d="M 46.5 20 Q 49.5 19.2 48 23 L 44.5 25 L 43 22.5 L 46.5 20 Z " /><path fill="rgb(227,227,227)" stroke="rgb(227,227,227)" stroke-width="1" opacity="1" d="M 33 24 Q 36.7 22.5 36 25.5 L 33 27 L 33 24 Z " /><path fill="rgb(227,227,227)" stroke="rgb(227,227,227)" stroke-width="1" opacity="1" d="M 36.5 27 L 35.5 29 L 36.5 27 Z " /><path fill="rgb(227,227,227)" stroke="rgb(227,227,227)" stroke-width="1" opacity="1" d="M 4.5 35 L 7 35.5 L 7 37.5 L 8 40.5 L 6 39.5 L 4.5 35 Z " /><path fill="rgb(227,227,227)" stroke="rgb(227,227,227)" stroke-width="1" opacity="1" d="M 0 38 L 4 39.5 L 0 40.5 L 0 38 Z " /><path fill="rgb(227,227,227)" stroke="rgb(227,227,227)" stroke-width="1" opacity="1" d="M 44.5 45 L 45 47 L 41 46.5 L 44.5 45 Z " /><path fill="rgb(227,227,227)" stroke="rgb(227,227,227)" stroke-width="1" opacity="1" d="M 10.5 46 L 11.5 48 L 10.5 46 Z " /><path fill="rgb(193,193,193)" stroke="rgb(193,193,193)" stroke-width="1" opacity="1" d="M 36.5 4 L 39 5.5 L 37.5 5 L 36.5 4 Z " /><path fill="rgb(193,193,193)" stroke="rgb(193,193,193)" stroke-width="1" opacity="1" d="M 13.5 6 Q 15 9.5 16.5 7 L 18 7.5 L 15.5 9 L 13.5 6 Z " /><path fill="rgb(193,193,193)" stroke="rgb(193,193,193)" stroke-width="1" opacity="1" d="M 10.5 9 L 11.5 11 L 10.5 9 Z " /><path fill="rgb(193,193,193)" stroke="rgb(193,193,193)" stroke-width="1" opacity="1" d="M 23 9 L 25 9.5 L 23 10.5 L 23 9 Z " /><path fill="rgb(193,193,193)" stroke="rgb(193,193,193)" stroke-width="1" opacity="1" d="M 14.5 10 L 17 10.5 L 14.5 11 L 14.5 10 Z " /><path fill="rgb(193,193,193)" stroke="rgb(193,193,193)" stroke-width="1" opacity="1" d="M 27.5 11 L 28 13 L 24.5 14 L 24.5 13 L 27.5 11 Z " /><path fill="rgb(193,193,193)" stroke="rgb(193,193,193)" stroke-width="1" opacity="1" d="M 35.5 18 L 39 19 Q 40.1 21.7 37.5 21 L 35.5 18 Z " /><path fill="rgb(193,193,193)" stroke="rgb(193,193,193)" stroke-width="1" opacity="1" d="M 46.5 18 L 48 18.5 L 41.5 23 L 42 21.5 Q 41.2 18.9 44.5 20 L 46.5 18 Z " /><path fill="rgb(193,193,193)" stroke="rgb(193,193,193)" stroke-width="1" opacity="1" d="M 31.5 22 L 34 22.5 L 30.5 24 L 31.5 22 Z " /><path fill="rgb(193,193,193)" stroke="rgb(193,193,193)" stroke-width="1" opacity="1" d="M 36.5 22 L 38 24.5 L 36 23.5 L 36.5 22 Z " /><path fill="rgb(193,193,193)" stroke="rgb(193,193,193)" stroke-width="1" opacity="1" d="M 39.5 23 L 42 24.5 L 39 25 L 39.5 23 Z " /><path fill="rgb(193,193,193)" stroke="rgb(193,193,193)" stroke-width="1" opacity="1" d="M 47.5 23 L 48 25 L 45 26.5 L 45.5 28 L 44 26.5 L 47.5 23 Z " /><path fill="rgb(193,193,193)" stroke="rgb(193,193,193)" stroke-width="1" opacity="1" d="M 28.5 24 L 31 25.5 L 27 27 L 26.5 30 L 25.5 26 L 22 32 L 20 32.5 L 21 37 L 19 36.5 L 20 34.5 L 19 32.5 L 25.5 25 L 28.5 24 Z " /><path fill="rgb(193,193,193)" stroke="rgb(193,193,193)" stroke-width="1" opacity="1" d="M 38.5 26 L 40.5 26 Q 43.5 25.2 42 29 L 44.5 29 L 44.5 30 Q 38.1 30.8 38.5 26 Z " /><path fill="rgb(193,193,193)" stroke="rgb(193,193,193)" stroke-width="1" opacity="1" d="M 29.5 30 L 30.5 32 L 29 32.5 L 30 36 L 32 36.5 Q 27.7 38.7 29.5 41 L 28 39.5 L 28.5 37 L 30 36.5 L 28 36 L 27 31.5 L 29 31.5 L 29.5 30 Z " /><path fill="rgb(193,193,193)" stroke="rgb(193,193,193)" stroke-width="1" opacity="1" d="M 40.5 31 L 43 31.5 Q 40.9 34.8 40.5 31 Z " /><path fill="rgb(193,193,193)" stroke="rgb(193,193,193)" stroke-width="1" opacity="1" d="M 33.5 37 L 34 39 L 32 38.5 L 33.5 37 Z " /><path fill="rgb(193,193,193)" stroke="rgb(193,193,193)" stroke-width="1" opacity="1" d="M 17.5 39 L 16.5 41 L 17.5 39 Z " /><path fill="rgb(193,193,193)" stroke="rgb(193,193,193)" stroke-width="1" opacity="1" d="M 32.5 40 L 35.5 41 L 37 41.5 L 37 43.5 L 38 45.5 L 35 43.5 L 34.5 41 Q 32.7 43.5 32.5 40 Z " /><path fill="rgb(193,193,193)" stroke="rgb(193,193,193)" stroke-width="1" opacity="1" d="M 20.5 41 L 21.5 44 Q 22.8 41.8 24 44.5 L 23.5 46 L 22.5 44 L 21.5 46 Q 18.8 44.8 20.5 41 Z " /><path fill="rgb(193,193,193)" stroke="rgb(193,193,193)" stroke-width="1" opacity="1" d="M 39.5 41 Q 42.5 42.5 39.5 44 L 39.5 41 Z " /><path fill="rgb(193,193,193)" stroke="rgb(193,193,193)" stroke-width="1" opacity="1" d="M 0.5 42 L 1.5 44 L 0.5 42 Z " /><path fill="rgb(193,193,193)" stroke="rgb(193,193,193)" stroke-width="1" opacity="1" d="M 7.5 45 L 8 46.5 L 6 47.5 L 7.5 45 Z " /><path fill="rgb(193,193,193)" stroke="rgb(193,193,193)" stroke-width="1" opacity="1" d="M 3.5 46 L 4.5 48 L 3.5 46 Z " /><path fill="rgb(193,193,193)" stroke="rgb(193,193,193)" stroke-width="1" opacity="1" d="M 34 46 L 37 47.5 L 34 47.5 L 34 46 Z " /><path fill="rgb(205,205,205)" stroke="rgb(205,205,205)" stroke-width="1" opacity="1" d="M 8.5 4 L 7.5 6 L 8.5 4 Z " /><path fill="rgb(205,205,205)" stroke="rgb(205,205,205)" stroke-width="1" opacity="1" d="M 14.5 6 L 15.5 8 L 14.5 6 Z " /><path fill="rgb(205,205,205)" stroke="rgb(205,205,205)" stroke-width="1" opacity="1" d="M 23.5 7 L 24.5 9 L 22 8.5 L 23.5 7 Z " /><path fill="rgb(205,205,205)" stroke="rgb(205,205,205)" stroke-width="1" opacity="1" d="M 7.5 8 L 8.5 10 L 7.5 8 Z " /><path fill="rgb(205,205,205)" stroke="rgb(205,205,205)" stroke-width="1" opacity="1" d="M 27.5 9 L 28 10.5 Q 24.9 12.3 26.5 14 L 24 12.5 L 27 10.5 L 27.5 9 Z " /><path fill="rgb(205,205,205)" stroke="rgb(205,205,205)" stroke-width="1" opacity="1" d="M 41.5 18 L 46 18.5 L 41.5 19 L 41.5 18 Z " /><path fill="rgb(205,205,205)" stroke="rgb(205,205,205)" stroke-width="1" opacity="1" d="M 35.5 19 L 37 21.5 L 36 21.5 L 35.5 19 Z " /><path fill="rgb(205,205,205)" stroke="rgb(205,205,205)" stroke-width="1" opacity="1" d="M 32.5 20 L 33 22 L 30 23.5 L 29.5 25 L 28.5 23 L 28 25 L 26 24.5 L 32.5 20 Z " /><path fill="rgb(205,205,205)" stroke="rgb(205,205,205)" stroke-width="1" opacity="1" d="M 31.5 25 L 31 26.5 L 30 29.5 L 30.5 31 Q 27.8 29.8 30 28.5 L 31.5 25 Z " /><path fill="rgb(205,205,205)" stroke="rgb(205,205,205)" stroke-width="1" opacity="1" d="M 25.5 26 L 26 27.5 L 22 30.5 L 25.5 26 Z " /><path fill="rgb(205,205,205)" stroke="rgb(205,205,205)" stroke-width="1" opacity="1" d="M 28.5 27 L 27.5 29 L 28.5 27 Z " /><path fill="rgb(205,205,205)" stroke="rgb(205,205,205)" stroke-width="1" opacity="1" d="M 43.5 27 L 42.5 29 L 43.5 27 Z " /><path fill="rgb(205,205,205)" stroke="rgb(205,205,205)" stroke-width="1" opacity="1" d="M 26.5 30 L 29 31.5 L 27.5 31 L 26.5 30 Z " /><path fill="rgb(205,205,205)" stroke="rgb(205,205,205)" stroke-width="1" opacity="1" d="M 1.5 31 Q 3.8 30.3 3 32.5 L 1.5 31 Z " /><path fill="rgb(205,205,205)" stroke="rgb(205,205,205)" stroke-width="1" opacity="1" d="M 27 36 L 29 36.5 L 27.5 39 L 27 36 Z " /><path fill="rgb(205,205,205)" stroke="rgb(205,205,205)" stroke-width="1" opacity="1" d="M 19 37 Q 22.3 35.7 21 40.5 L 19.5 43 L 19 37 Z " /><path fill="rgb(205,205,205)" stroke="rgb(205,205,205)" stroke-width="1" opacity="1" d="M 23.5 38 Q 26.5 37.1 25 41.5 L 24 41.5 L 23.5 38 Z " /><path fill="rgb(205,205,205)" stroke="rgb(205,205,205)" stroke-width="1" opacity="1" d="M 34.5 38 L 35 40 L 32 39.5 L 34.5 38 Z " /><path fill="rgb(205,205,205)" stroke="rgb(205,205,205)" stroke-width="1" opacity="1" d="M 36.5 38 L 37.5 40 Q 38.8 37.8 40 40.5 L 36 41 L 36.5 38 Z " /><path fill="rgb(205,205,205)" stroke="rgb(205,205,205)" stroke-width="1" opacity="1" d="M 4.5 40 L 4 41.5 L 3.5 43 L 3 41.5 L 4.5 40 Z " /><path fill="rgb(205,205,205)" stroke="rgb(205,205,205)" stroke-width="1" opacity="1" d="M 6.5 40 L 7.5 42 L 6.5 40 Z " /><path fill="rgb(205,205,205)" stroke="rgb(205,205,205)" stroke-width="1" opacity="1" d="M 15.5 40 L 18 40.5 Q 18.8 42.8 16.5 42 L 15.5 40 Z " /><path fill="rgb(205,205,205)" stroke="rgb(205,205,205)" stroke-width="1" opacity="1" d="M 31.5 42 Q 34.5 43.5 31.5 45 L 30 44.5 L 32 43.5 L 31.5 42 Z " /><path fill="rgb(205,205,205)" stroke="rgb(205,205,205)" stroke-width="1" opacity="1" d="M 1.5 44 L 4 45.5 L 2.5 45 L 1.5 44 Z " /><path fill="rgb(205,205,205)" stroke="rgb(205,205,205)" stroke-width="1" opacity="1" d="M 36.5 46 Q 38.8 45.3 38 47.5 L 35 47.5 L 36.5 46 Z " /><path fill="rgb(248,248,248)" stroke="rgb(248,248,248)" stroke-width="1" opacity="1" d="M 0 0 L 5.5 0 L 6 1.5 L 7 3.5 L 4 8 Q 7.3 6.7 6 11.5 L 5 12.5 L 10 17.5 L 13.5 23 L 15.5 23 L 19 24.5 L 15 33.5 L 15 38.5 Q 11.3 39.8 12 44 Q 8.2 45.5 9 42.5 L 6 30.5 L 3.5 27 Q 0.2 25.9 1 28.5 L 0 28.5 L 0 0 Z " /><path fill="rgb(248,248,248)" stroke="rgb(248,248,248)" stroke-width="1" opacity="1" d="M 19 0 L 23 2.5 L 21.5 2 Q 17.8 3 19 0 Z " /><path fill="rgb(248,248,248)" stroke="rgb(248,248,248)" stroke-width="1" opacity="1" d="M 29 0 L 48 0 L 48 8.5 L 44.5 11 L 41 9 L 39 4 L 36.5 3 L 34.5 6 Q 30.1 4.5 31 7.5 L 31.5 9 Q 29 7.8 30 4 L 28 3.5 L 29 0 Z " /><path fill="rgb(248,248,248)" stroke="rgb(248,248,248)" stroke-width="1" opacity="1" d="M 29.5 10 Q 29.4 15.1 33 16.5 L 28.5 19 L 27 16.5 L 29 16.5 L 29.5 10 Z " /><path fill="rgb(248,248,248)" stroke="rgb(248,248,248)" stroke-width="1" opacity="1" d="M 18.5 11 L 22 13.5 L 18.5 20 L 17 17.5 Q 19.2 16.3 16.5 15 L 14 16 L 14 14 L 16 14 Q 14.9 11.3 17.5 12 L 18.5 11 Z " /><path fill="rgb(248,248,248)" stroke="rgb(248,248,248)" stroke-width="1" opacity="1" d="M 34.5 11 L 38 12 L 36.5 15 L 33.5 13 L 34.5 11 Z " /><path fill="rgb(248,248,248)" stroke="rgb(248,248,248)" stroke-width="1" opacity="1" d="M 24.5 16 L 27 20.5 L 25 21.5 Q 27.8 23.3 23.5 25 L 23 22.5 L 24.5 16 Z " /><path fill="rgb(248,248,248)" stroke="rgb(248,248,248)" stroke-width="1" opacity="1" d="M 47.5 29 L 48 45.5 L 47 45.5 L 47 42.5 L 43 33.5 L 47 31 L 47.5 29 Z " /><path fill="rgb(125,125,125)" stroke="rgb(125,125,125)" stroke-width="1" opacity="1" d="M 32.5 7 L 33.5 9 L 32.5 7 Z " /><path fill="rgb(125,125,125)" stroke="rgb(125,125,125)" stroke-width="1" opacity="1" d="M 34.5 16 L 35 17.5 L 33 18.5 L 34.5 16 Z " /><path fill="rgb(125,125,125)" stroke="rgb(125,125,125)" stroke-width="1" opacity="1" d="M 42.5 16 L 46 17.5 L 44.5 18 L 42.5 16 Z " /><path fill="rgb(125,125,125)" stroke="rgb(125,125,125)" stroke-width="1" opacity="1" d="M 20.5 27 L 21 29.5 L 19 30.5 L 20.5 27 Z " /><path fill="rgb(125,125,125)" stroke="rgb(125,125,125)" stroke-width="1" opacity="1" d="M 5.5 42 L 6 43.5 L 4.5 47 L 4 43.5 L 5.5 42 Z " /><path fill="rgb(212,212,212)" stroke="rgb(212,212,212)" stroke-width="1" opacity="1" d="M 18.5 6 L 19.5 8 L 17.5 9 L 18 7.5 L 18.5 6 Z " /><path fill="rgb(212,212,212)" stroke="rgb(212,212,212)" stroke-width="1" opacity="1" d="M 12.5 9 Q 15.5 10.5 12.5 12 L 12.5 9 Z " /><path fill="rgb(212,212,212)" stroke="rgb(212,212,212)" stroke-width="1" opacity="1" d="M 34.5 9 L 35.5 11 L 34.5 9 Z " /><path fill="rgb(212,212,212)" stroke="rgb(212,212,212)" stroke-width="1" opacity="1" d="M 23.5 11 L 26 11.5 L 23.5 12 L 23.5 11 Z " /><path fill="rgb(212,212,212)" stroke="rgb(212,212,212)" stroke-width="1" opacity="1" d="M 27.5 13 L 27 14.5 L 26.5 16 L 26 14.5 L 27.5 13 Z " /><path fill="rgb(212,212,212)" stroke="rgb(212,212,212)" stroke-width="1" opacity="1" d="M 34.5 19 L 35 20.5 L 33 21.5 L 34.5 19 Z " /><path fill="rgb(212,212,212)" stroke="rgb(212,212,212)" stroke-width="1" opacity="1" d="M 40.5 19 L 41 21 L 39 20.5 L 40.5 19 Z " /><path fill="rgb(212,212,212)" stroke="rgb(212,212,212)" stroke-width="1" opacity="1" d="M 44.5 19 L 45.5 21 L 44.5 19 Z " /><path fill="rgb(212,212,212)" stroke="rgb(212,212,212)" stroke-width="1" opacity="1" d="M 17.5 21 L 16.5 23 L 17.5 21 Z " /><path fill="rgb(212,212,212)" stroke="rgb(212,212,212)" stroke-width="1" opacity="1" d="M 21.5 26 L 22 28.5 L 21 28.5 L 21.5 26 Z " /><path fill="rgb(212,212,212)" stroke="rgb(212,212,212)" stroke-width="1" opacity="1" d="M 25.5 28 L 27 31.5 L 25 30.5 L 25.5 28 Z " /><path fill="rgb(212,212,212)" stroke="rgb(212,212,212)" stroke-width="1" opacity="1" d="M 29.5 28 L 30.5 30 L 29.5 28 Z " /><path fill="rgb(212,212,212)" stroke="rgb(212,212,212)" stroke-width="1" opacity="1" d="M 2.5 30 L 3.5 32 L 2.5 30 Z " /><path fill="rgb(212,212,212)" stroke="rgb(212,212,212)" stroke-width="1" opacity="1" d="M 23.5 30 L 22.5 32 L 23.5 30 Z " /><path fill="rgb(212,212,212)" stroke="rgb(212,212,212)" stroke-width="1" opacity="1" d="M 1.5 32 L 5 34.5 L 2 34.5 L 1.5 32 Z " /><path fill="rgb(212,212,212)" stroke="rgb(212,212,212)" stroke-width="1" opacity="1" d="M 33.5 36 L 34.5 38 L 33.5 36 Z " /><path fill="rgb(212,212,212)" stroke="rgb(212,212,212)" stroke-width="1" opacity="1" d="M 30.5 40 L 31.5 42 L 30.5 40 Z " /><path fill="rgb(212,212,212)" stroke="rgb(212,212,212)" stroke-width="1" opacity="1" d="M 12.5 45 L 14 47.5 L 12 48 L 12.5 45 Z " /><path fill="rgb(172,172,172)" stroke="rgb(172,172,172)" stroke-width="1" opacity="1" d="M 34.5 8 L 37 9.5 L 35.5 10 L 34.5 8 Z " /><path fill="rgb(172,172,172)" stroke="rgb(172,172,172)" stroke-width="1" opacity="1" d="M 10.5 12 L 9.5 14 L 10.5 12 Z " /><path fill="rgb(172,172,172)" stroke="rgb(172,172,172)" stroke-width="1" opacity="1" d="M 39.5 21 L 42 21.5 L 39 23 Q 37.9 25.7 40.5 25 L 39.5 27 L 37 22 L 39.5 21 Z " /><path fill="rgb(172,172,172)" stroke="rgb(172,172,172)" stroke-width="1" opacity="1" d="M 46.5 25 L 45 27.5 Q 45.8 29.8 43.5 29 L 46.5 25 Z " /><path fill="rgb(172,172,172)" stroke="rgb(172,172,172)" stroke-width="1" opacity="1" d="M 3.5 29 L 5 32.5 L 4 32.5 L 3.5 29 Z " /><path fill="rgb(172,172,172)" stroke="rgb(172,172,172)" stroke-width="1" opacity="1" d="M 40.5 29 L 42 31.5 L 40 30.5 L 40.5 29 Z " /><path fill="rgb(172,172,172)" stroke="rgb(172,172,172)" stroke-width="1" opacity="1" d="M 18.5 30 L 20.5 33 L 19 32.5 L 20 35.5 L 16.5 40 L 16 38.5 L 18 33.5 L 18 31.5 L 18.5 30 Z " /><path fill="rgb(172,172,172)" stroke="rgb(172,172,172)" stroke-width="1" opacity="1" d="M 29.5 32 Q 31.8 31.3 31 33.5 L 33 37.5 L 32 40.5 Q 33.5 43.5 35 40.5 L 35.5 37 L 36 40.5 L 35 43.5 L 37 44.5 L 36 42.5 L 39 41 Q 39.8 44.8 36.5 46 Q 33.2 47.1 34 44.5 L 30.5 40 L 28 38.5 L 30.5 38 Q 33.1 38.7 32 36 L 29.5 37 L 30 35.5 L 29.5 32 Z " /><path fill="rgb(172,172,172)" stroke="rgb(172,172,172)" stroke-width="1" opacity="1" d="M 0 36 L 2 36.5 L 0 37.5 L 0 36 Z " /><path fill="rgb(172,172,172)" stroke="rgb(172,172,172)" stroke-width="1" opacity="1" d="M 23.5 40 L 24 43.5 L 22.5 47 L 22 44.5 L 23.5 40 Z " /><path fill="rgb(172,172,172)" stroke="rgb(172,172,172)" stroke-width="1" opacity="1" d="M 6.5 41 L 8 44.5 L 5.5 48 L 5 46.5 L 6 43.5 L 6.5 41 Z " /><path fill="rgb(220,220,220)" stroke="rgb(220,220,220)" stroke-width="1" opacity="1" d="M 8.5 3 L 9 5.5 L 8.5 8 L 7 4.5 L 8.5 3 Z " /><path fill="rgb(220,220,220)" stroke="rgb(220,220,220)" stroke-width="1" opacity="1" d="M 13.5 7 Q 16.5 8.5 13.5 10 L 13.5 7 Z " /><path fill="rgb(220,220,220)" stroke="rgb(220,220,220)" stroke-width="1" opacity="1" d="M 20.5 9 L 21.5 11 L 20.5 9 Z " /><path fill="rgb(220,220,220)" stroke="rgb(220,220,220)" stroke-width="1" opacity="1" d="M 9.5 15 L 10.5 17 L 9.5 15 Z " /><path fill="rgb(220,220,220)" stroke="rgb(220,220,220)" stroke-width="1" opacity="1" d="M 12.5 18 L 14.5 21 L 12 20 L 12.5 18 Z " /><path fill="rgb(220,220,220)" stroke="rgb(220,220,220)" stroke-width="1" opacity="1" d="M 21.5 18 L 22 19.5 L 20 20.5 L 21.5 18 Z " /><path fill="rgb(220,220,220)" stroke="rgb(220,220,220)" stroke-width="1" opacity="1" d="M 41.5 19 L 44 19.5 L 41.5 20 L 41.5 19 Z " /><path fill="rgb(220,220,220)" stroke="rgb(220,220,220)" stroke-width="1" opacity="1" d="M 42.5 22 L 44.5 25 L 47 23.5 L 42 27.5 L 43 24.5 L 42.5 22 Z " /><path fill="rgb(220,220,220)" stroke="rgb(220,220,220)" stroke-width="1" opacity="1" d="M 34.5 23 L 37 24.5 L 40 30.5 Q 37.5 32 41 33.5 L 43.5 39 L 45 38.5 L 42 40.5 L 46 42.5 L 47 46.5 L 45.5 48 L 38 48 L 39.5 44 L 41 44.5 L 42 42.5 L 41 40 L 39 39.5 L 39.5 38 L 37.5 39 L 36 34.5 L 36.5 33 Q 33.5 32.2 35 36 L 33 36 L 31 27.5 L 32.5 25 L 33 27 L 36 25.5 Q 36.8 23.3 34.5 24 L 34.5 23 Z M 45 45 L 41 47 L 45 47 L 45 45 Z " /><path fill="rgb(220,220,220)" stroke="rgb(220,220,220)" stroke-width="1" opacity="1" d="M 20.5 24 L 21.5 26 L 20.5 24 Z " /><path fill="rgb(220,220,220)" stroke="rgb(220,220,220)" stroke-width="1" opacity="1" d="M 23.5 31 L 27 33.5 L 25.5 36 L 24.5 33 L 23 33.5 L 23.5 31 Z " /><path fill="rgb(220,220,220)" stroke="rgb(220,220,220)" stroke-width="1" opacity="1" d="M 43.5 31 L 42.5 33 L 43.5 31 Z " /><path fill="rgb(220,220,220)" stroke="rgb(220,220,220)" stroke-width="1" opacity="1" d="M 25.5 38 Q 28.3 43.4 31 41.5 L 30 44 Q 27.3 42.9 28 45.5 L 29 48 L 24 48 L 24 44.5 L 25.5 38 Z " /><path fill="rgb(220,220,220)" stroke="rgb(220,220,220)" stroke-width="1" opacity="1" d="M 2.5 39 L 3.5 41 L 1.5 42 L 2 40.5 L 2.5 39 Z " /><path fill="rgb(220,220,220)" stroke="rgb(220,220,220)" stroke-width="1" opacity="1" d="M 18.5 40 L 19 42.5 L 18 42.5 L 18.5 40 Z " /><path fill="rgb(220,220,220)" stroke="rgb(220,220,220)" stroke-width="1" opacity="1" d="M 17.5 45 L 18 47 L 20.5 46 L 21 48 Q 15.1 49.9 17.5 45 Z " /><path fill="rgb(220,220,220)" stroke="rgb(220,220,220)" stroke-width="1" opacity="1" d="M 32.5 45 L 33 47.5 L 32 47.5 L 32.5 45 Z " /></svg>