<?xml version="1.0" standalone="no"?>
<!DOCTYPE svg PUBLIC "-//W3C//DTD SVG 20010904//EN"
 "http://www.w3.org/TR/2001/REC-SVG-20010904/DTD/svg10.dtd">
<svg version="1.0" xmlns="http://www.w3.org/2000/svg"
 width="350.000000pt" height="350.000000pt" viewBox="0 0 350.000000 350.000000"
 preserveAspectRatio="xMidYMid meet">
<metadata>
Created by potrace 1.14, written by Peter Selinger 2001-2017
</metadata>
<g transform="translate(0.000000,350.000000) scale(0.100000,-0.100000)"
fill="#000000" stroke="none">
<path d="M895 3487 c-4 -10 -5 -21 -1 -24 10 -10 18 4 13 24 -4 17 -4 17 -12
0z"/>
<path d="M1730 3485 c0 -8 6 -15 14 -15 8 0 16 7 20 15 4 10 -1 15 -14 15 -11
0 -20 -7 -20 -15z"/>
<path d="M2660 3162 c0 -10 11 -29 25 -42 29 -27 32 -45 9 -54 -26 -10 -34 -7
-34 15 0 11 -4 17 -10 14 -5 -3 -10 -17 -10 -31 0 -19 -5 -24 -27 -24 -36 0
-95 -22 -109 -39 -10 -13 -23 -13 -94 -2 -45 7 -84 11 -86 8 -9 -9 19 -68 37
-78 15 -7 19 -21 19 -59 0 -28 4 -50 8 -50 5 0 30 20 56 45 51 48 67 53 85 31
6 -7 22 -11 37 -8 19 3 34 -3 57 -25 18 -17 40 -33 50 -36 9 -4 20 -15 23 -24
3 -10 9 -25 14 -34 5 -10 4 -21 -2 -27 -8 -8 1 -17 33 -30 59 -26 131 -94 123
-116 -3 -9 -1 -23 5 -30 9 -10 9 -20 2 -33 -6 -10 -17 -34 -25 -53 -9 -19 -25
-47 -38 -63 -32 -39 -14 -52 43 -33 65 23 87 21 95 -10 4 -16 24 -37 52 -55
38 -24 57 -29 108 -29 47 0 67 -5 88 -21 32 -25 33 -46 4 -52 -13 -2 0 -5 27
-6 53 -1 200 -17 248 -27 l27 -6 0 251 0 251 -55 0 c-85 0 -128 -27 -166 -101
l-30 -61 -24 22 c-13 12 -26 34 -30 48 -8 33 -33 61 -62 73 -13 5 -23 16 -23
26 -1 23 -59 88 -87 97 -12 4 -35 28 -51 54 -16 26 -39 57 -50 69 -12 11 -35
45 -53 75 -40 66 -167 198 -191 198 -11 0 -18 -7 -18 -18z"/>
<path d="M1040 2990 c0 -6 7 -10 15 -10 8 0 15 2 15 4 0 2 -7 6 -15 10 -8 3
-15 1 -15 -4z"/>
<path d="M1490 2983 c1 -15 55 -86 69 -91 8 -3 -1 16 -20 42 -34 49 -49 64
-49 49z"/>
<path d="M1685 2909 c-4 -6 -5 -11 -4 -12 2 -1 14 -8 27 -15 23 -13 23 -13 6
13 -18 28 -20 29 -29 14z"/>
<path d="M1200 2861 c0 -7 51 -31 67 -31 2 0 -1 9 -7 20 -11 20 -60 29 -60 11z"/>
<path d="M1070 2810 c-40 -40 -49 -63 -30 -75 6 -3 10 4 10 15 0 14 5 20 13
17 7 -3 19 4 25 14 7 10 22 19 35 19 20 1 21 2 5 14 -25 19 -22 24 15 29 l32
4 -32 1 c-26 2 -41 -6 -73 -38z"/>
<path d="M2546 2819 c-14 -11 -26 -25 -26 -31 0 -6 8 -4 18 5 23 21 41 21 63
1 16 -15 17 -14 12 5 -4 16 -1 21 13 21 25 0 14 6 -23 13 -23 5 -38 1 -57 -14z"/>
<path d="M1687 2773 c-12 -11 -8 -23 8 -23 8 0 15 7 15 15 0 16 -12 20 -23 8z"/>
<path d="M1760 2771 c0 -6 5 -13 10 -16 6 -3 10 1 10 9 0 9 -4 16 -10 16 -5 0
-10 -4 -10 -9z"/>
<path d="M1210 2724 c0 -8 5 -12 10 -9 6 4 8 11 5 16 -9 14 -15 11 -15 -7z"/>
<path d="M1700 2654 c0 -8 5 -12 10 -9 6 4 8 11 5 16 -9 14 -15 11 -15 -7z"/>
<path d="M1971 2614 c0 -11 3 -14 6 -6 3 7 2 16 -1 19 -3 4 -6 -2 -5 -13z"/>
<path d="M2287 2623 c-23 -22 14 -53 39 -32 22 18 17 39 -9 39 -13 0 -27 -3
-30 -7z"/>
<path d="M762 2578 c-26 -13 -37 -47 -27 -85 l6 -26 15 28 c8 15 14 34 14 41
0 17 14 18 41 4 24 -14 27 11 3 34 -18 18 -21 19 -52 4z"/>
<path d="M673 2495 c0 -22 2 -30 4 -17 2 12 2 30 0 40 -3 9 -5 -1 -4 -23z"/>
<path d="M2350 2500 c0 -6 30 -10 67 -10 36 0 64 2 62 4 -11 9 -129 15 -129 6z"/>
<path d="M790 2450 c0 -13 18 -22 24 -11 3 5 -1 11 -9 15 -8 3 -15 1 -15 -4z"/>
<path d="M1840 2434 c0 -7 7 -25 15 -40 12 -24 15 -26 15 -8 0 21 -29 68 -30
48z"/>
<path d="M740 2395 c0 -5 5 -17 10 -25 5 -8 10 -10 10 -5 0 6 -5 17 -10 25 -5
8 -10 11 -10 5z"/>
<path d="M2470 2318 c-12 -13 -42 -56 -67 -95 -26 -42 -52 -73 -62 -73 -14 -1
-14 -2 2 -14 29 -22 97 -13 150 20 46 28 48 30 42 68 -3 23 -1 44 6 52 9 12 7
20 -11 39 -29 31 -34 31 -60 3z"/>
<path d="M1911 2270 c0 -8 6 -24 14 -34 19 -25 19 -9 0 24 -8 14 -14 19 -14
10z"/>
<path d="M814 2225 c9 -25 49 -85 54 -80 5 5 -17 45 -41 75 -16 20 -19 21 -13
5z"/>
<path d="M2906 2135 c4 -8 -1 -17 -10 -21 -9 -3 -16 -12 -16 -20 0 -20 24 -7
49 26 l22 30 -25 0 c-18 0 -24 -4 -20 -15z"/>
<path d="M2687 2066 c-4 -10 -1 -13 9 -9 15 6 19 23 5 23 -5 0 -11 -7 -14 -14z"/>
<path d="M2329 2013 c-13 -15 -12 -15 9 -4 23 12 28 21 13 21 -5 0 -15 -7 -22
-17z"/>
<path d="M2120 1940 c0 -5 5 -10 11 -10 5 0 7 5 4 10 -3 6 -8 10 -11 10 -2 0
-4 -4 -4 -10z"/>
<path d="M2896 1925 c-20 -14 -45 -25 -54 -25 -9 0 -28 -6 -42 -13 -14 -7 -52
-21 -85 -32 -74 -24 -70 -21 -55 -40 17 -20 27 -19 32 3 4 14 34 28 109 51
104 33 189 67 189 76 0 15 -62 2 -94 -20z"/>
<path d="M1140 1912 c0 -27 78 -43 109 -23 10 6 0 8 -27 4 -32 -4 -47 -1 -62
12 -11 10 -20 13 -20 7z"/>
<path d="M1421 1824 c0 -11 3 -14 6 -6 3 7 2 16 -1 19 -3 4 -6 -2 -5 -13z"/>
<path d="M1512 1610 c0 -14 2 -19 5 -12 2 6 2 18 0 25 -3 6 -5 1 -5 -13z"/>
<path d="M3265 1552 c-30 -26 -49 -52 -37 -52 5 0 22 16 36 35 30 39 30 42 1
17z"/>
<path d="M1471 1446 c-22 -57 -41 -109 -41 -115 0 -6 -4 -11 -10 -11 -5 0 -10
-9 -10 -20 0 -11 -4 -20 -10 -20 -5 0 -10 -18 -10 -39 0 -22 -3 -47 -7 -57 -5
-14 -9 -11 -18 16 -11 32 -12 27 -19 -69 -4 -67 -3 -108 4 -115 5 -5 10 -18
10 -28 0 -10 4 -18 10 -18 6 0 8 35 5 90 -4 75 -2 88 10 83 11 -4 15 2 15 20
0 13 6 30 14 36 8 7 17 27 20 46 4 19 13 35 20 35 36 0 99 244 69 263 -6 4
-28 -38 -52 -97z"/>
<path d="M230 1411 c0 -13 20 -73 41 -118 10 -24 19 -49 19 -56 0 -7 4 -17 8
-22 5 -6 17 -37 27 -70 11 -33 23 -64 27 -70 4 -5 8 -17 8 -27 0 -10 4 -26 9
-36 5 -9 13 -26 17 -37 7 -17 8 -16 12 9 2 16 -1 39 -6 50 -12 24 -56 170 -82
269 -10 38 -28 80 -41 93 -23 24 -39 31 -39 15z"/>
<path d="M3200 1412 c0 -10 69 -46 76 -40 2 3 -14 15 -36 27 -22 12 -40 18
-40 13z"/>
<path d="M1593 1384 c-7 -7 -13 -19 -13 -26 0 -7 7 -2 16 10 18 26 16 37 -3
16z"/>
<path d="M2952 1344 c-11 -12 -11 -22 -2 -49 12 -36 25 -45 33 -22 2 6 -3 17
-12 24 -14 11 -14 13 2 25 15 12 16 16 5 25 -10 8 -16 7 -26 -3z"/>
<path d="M1282 1260 c0 -14 2 -19 5 -12 2 6 2 18 0 25 -3 6 -5 1 -5 -13z"/>
<path d="M2979 1223 c5 -17 14 -40 20 -50 9 -16 10 -15 11 8 0 15 -9 37 -20
50 l-19 24 8 -32z"/>
<path d="M3010 1238 c0 -7 12 -19 27 -25 32 -15 43 -16 43 -5 0 8 -14 16 -62
40 -5 2 -8 -2 -8 -10z"/>
<path d="M1264 1194 c-4 -14 -2 -30 5 -37 8 -8 11 -1 11 26 0 43 -7 48 -16 11z"/>
<path d="M3015 1130 c3 -5 10 -10 16 -10 5 0 9 5 9 10 0 6 -7 10 -16 10 -8 0
-12 -4 -9 -10z"/>
<path d="M2040 1101 c0 -6 5 -13 10 -16 6 -3 10 1 10 9 0 9 -4 16 -10 16 -5 0
-10 -4 -10 -9z"/>
<path d="M2192 1050 c0 -19 2 -27 5 -17 2 9 2 25 0 35 -3 9 -5 1 -5 -18z"/>
<path d="M1293 1005 c-15 -54 -23 -175 -12 -175 5 0 9 9 9 20 0 11 9 35 20 55
22 39 25 66 11 81 -5 5 -11 20 -13 34 -4 22 -6 20 -15 -15z"/>
<path d="M0 1016 c0 -9 7 -16 16 -16 17 0 14 22 -4 28 -7 2 -12 -3 -12 -12z"/>
<path d="M2204 985 c-10 -25 5 -81 26 -100 25 -22 25 -11 4 61 -16 57 -21 63
-30 39z"/>
<path d="M2310 985 c0 -8 4 -15 10 -15 5 0 7 7 4 15 -4 8 -8 15 -10 15 -2 0
-4 -7 -4 -15z"/>
<path d="M1380 939 c0 -11 4 -18 10 -14 5 3 7 12 3 20 -7 21 -13 19 -13 -6z"/>
<path d="M62 878 c-16 -16 -15 -43 2 -57 20 -16 39 10 30 43 -7 29 -14 32 -32
14z"/>
<path d="M2142 870 c0 -14 2 -19 5 -12 2 6 2 18 0 25 -3 6 -5 1 -5 -13z"/>
<path d="M1360 853 c0 -5 5 -15 10 -23 8 -12 10 -11 10 8 0 12 -4 22 -10 22
-5 0 -10 -3 -10 -7z"/>
<path d="M0 825 c0 -8 4 -15 9 -15 5 0 17 -7 25 -16 14 -13 16 -13 16 0 0 16
-26 46 -41 46 -5 0 -9 -7 -9 -15z"/>
<path d="M2262 820 c0 -14 2 -19 5 -12 2 6 2 18 0 25 -3 6 -5 1 -5 -13z"/>
<path d="M1251 791 c-14 -25 -5 -44 10 -21 8 13 10 13 19 0 5 -8 10 -10 10 -4
0 5 -6 19 -14 29 -13 18 -14 18 -25 -4z"/>
<path d="M2140 800 c0 -5 9 -10 21 -10 11 0 17 5 14 10 -3 6 -13 10 -21 10 -8
0 -14 -4 -14 -10z"/>
<path d="M2562 760 c0 -14 2 -19 5 -12 2 6 2 18 0 25 -3 6 -5 1 -5 -13z"/>
<path d="M1230 691 c0 -5 -3 -18 -7 -28 -4 -13 -1 -12 15 6 26 29 27 31 7 31
-8 0 -15 -4 -15 -9z"/>
<path d="M2275 653 c3 -16 8 -37 9 -48 6 -35 17 -53 44 -71 18 -12 23 -13 15
-3 -6 8 -17 45 -24 82 -10 55 -16 67 -32 67 -16 0 -18 -5 -12 -27z"/>
<path d="M1723 504 c-16 -17 -17 -38 -1 -28 8 5 9 2 5 -9 -3 -9 -2 -19 2 -22
13 -7 18 16 12 46 -5 22 -8 25 -18 13z"/>
<path d="M0 479 c0 -21 6 -32 18 -36 10 -2 32 -25 50 -51 27 -41 36 -61 58
-131 3 -10 7 -11 19 -1 12 10 11 17 -7 48 -11 20 -24 42 -28 47 -4 6 -24 43
-45 83 -39 77 -65 94 -65 41z"/>
<path d="M457 504 c-4 -4 -7 -16 -7 -26 0 -10 -11 -30 -25 -44 -14 -14 -25
-31 -25 -39 0 -8 -5 -15 -11 -15 -6 0 -8 8 -4 19 3 11 1 22 -5 26 -6 4 -10 -7
-10 -27 0 -26 -6 -36 -26 -45 -15 -7 -30 -10 -35 -7 -18 10 -30 -146 -14 -180
7 -16 5 -18 -8 -13 -13 5 -17 1 -17 -18 0 -33 18 -41 29 -13 9 22 9 22 16 3 3
-11 11 -28 16 -37 5 -10 9 -25 9 -34 0 -13 3 -14 15 -4 8 7 15 20 15 29 0 10
8 26 18 37 20 21 16 70 -8 99 -10 12 -9 20 4 40 9 13 16 35 16 49 0 14 5 28
10 31 6 3 10 -4 10 -16 0 -12 3 -19 8 -15 4 4 7 27 7 49 0 37 3 42 21 39 20
-3 21 1 17 50 -6 67 -7 71 -16 62z m-105 -296 c-13 -13 -32 -2 -32 18 0 12 4
13 21 3 14 -7 18 -14 11 -21z"/>
<path d="M2360 475 c0 -8 9 -32 20 -52 15 -28 20 -33 20 -17 0 29 -20 84 -31
84 -5 0 -9 -7 -9 -15z"/>
<path d="M262 448 c2 -6 10 -14 16 -16 7 -2 10 2 6 12 -7 18 -28 22 -22 4z"/>
<path d="M2686 444 c-9 -24 -7 -28 9 -14 17 14 20 30 6 30 -5 0 -12 -7 -15
-16z"/>
<path d="M522 389 c-13 -74 -15 -216 -3 -184 5 11 14 20 22 20 18 0 22 157 4
200 -12 30 -12 29 -23 -36z m14 -126 c-11 -11 -19 6 -11 24 8 17 8 17 12 0 3
-10 2 -21 -1 -24z"/>
<path d="M2410 414 c0 -8 5 -12 10 -9 6 3 10 10 10 16 0 5 -4 9 -10 9 -5 0
-10 -7 -10 -16z"/>
<path d="M296 377 c3 -10 9 -15 12 -12 3 3 0 11 -7 18 -10 9 -11 8 -5 -6z"/>
<path d="M2660 374 c0 -8 5 -12 10 -9 6 3 10 10 10 16 0 5 -4 9 -10 9 -5 0
-10 -7 -10 -16z"/>
<path d="M2420 340 c0 -5 5 -10 10 -10 6 0 10 5 10 10 0 6 -4 10 -10 10 -5 0
-10 -4 -10 -10z"/>
<path d="M2627 333 c-4 -3 -7 -11 -7 -17 0 -6 5 -5 12 2 6 6 9 14 7 17 -3 3
-9 2 -12 -2z"/>
<path d="M481 325 c-2 -5 -2 -23 -1 -38 1 -15 -4 -34 -10 -42 -7 -8 -10 -20
-7 -27 8 -23 28 44 24 81 -2 20 -5 32 -6 26z"/>
<path d="M425 188 c11 -48 24 -70 25 -38 0 36 -11 70 -22 70 -6 0 -7 -14 -3
-32z"/>
<path d="M1615 170 c3 -5 8 -10 11 -10 2 0 4 5 4 10 0 6 -5 10 -11 10 -5 0 -7
-4 -4 -10z"/>
<path d="M2661 164 c0 -11 3 -14 6 -6 3 7 2 16 -1 19 -3 4 -6 -2 -5 -13z"/>
<path d="M514 135 c-3 -20 -4 -39 0 -42 3 -4 6 3 6 15 0 11 5 24 10 27 13 8
13 35 0 35 -5 0 -12 -16 -16 -35z"/>
<path d="M1650 111 c0 -6 5 -13 10 -16 6 -3 10 1 10 9 0 9 -4 16 -10 16 -5 0
-10 -4 -10 -9z"/>
<path d="M510 66 c0 -9 5 -16 10 -16 6 0 10 4 10 9 0 6 -4 13 -10 16 -5 3 -10
-1 -10 -9z"/>
<path d="M448 43 c6 -2 18 -2 25 0 6 3 1 5 -13 5 -14 0 -19 -2 -12 -5z"/>
<path d="M370 21 c0 -10 24 -21 46 -21 8 0 14 7 14 15 0 10 -10 15 -30 15 -16
0 -30 -4 -30 -9z"/>
</g>
</svg>
